<svg width="93" height="20" viewBox="0 0 93 20" fill="none" xmlns="http://www.w3.org/2000/svg">
<path d="M19.6548 19.7267L27.1765 0.405075H32.5941L40.0371 19.7267H34.9194L29.3101 3.48463H30.4064L24.6643 19.7267H19.6548ZM29.5411 15.5295L28.0516 11.6593H34.9194V15.5295H29.5411Z" fill="#006322"/>
<path d="M58.6741 19.961C57.2878 19.961 56.0587 19.673 54.9821 19.0922C53.9055 18.4919 53.0501 17.6769 52.411 16.6423C51.7915 15.6076 51.4818 14.4314 51.4818 13.1088C51.4818 11.8058 51.7817 10.6442 52.3864 9.62908C53.0058 8.59443 53.8465 7.7794 54.9034 7.17911C55.9604 6.56417 57.1354 6.25671 58.4332 6.25671C59.7114 6.25671 60.8323 6.54465 61.7959 7.12542C62.7791 7.68667 63.546 8.46754 64.0917 9.46315C64.6571 10.4441 64.9422 11.5569 64.9422 12.8062C64.9422 13.0405 64.9225 13.2845 64.8881 13.5383C64.8685 13.7726 64.8242 14.0459 64.7505 14.3533L56.629 14.3826L55.5622 11.7179L63.0839 11.6886L61.6336 12.8014C61.5992 12.0205 61.4517 11.3714 61.1961 10.8443C60.9601 10.3172 60.6012 9.92191 60.1293 9.6486C59.6721 9.36066 59.1067 9.21425 58.4332 9.21425C57.7204 9.21425 57.101 9.3753 56.5749 9.70229C56.044 10.0098 55.636 10.4539 55.3459 11.0346C55.0706 11.5959 54.9379 12.2694 54.9379 13.0454C54.9379 13.8409 55.0853 14.5388 55.3754 15.1391C55.6851 15.7199 56.1226 16.1737 56.688 16.5007C57.2534 16.8082 57.9121 16.9644 58.6594 16.9644C59.3329 16.9644 59.9474 16.857 60.4931 16.6374C61.0388 16.4031 61.5157 16.0566 61.9139 15.6027L64.018 17.6964C63.3789 18.4383 62.5972 18.9995 61.6631 19.3802C60.7438 19.7706 59.7508 19.961 58.6741 19.961Z" fill="#006322"/>
<path d="M73.393 19.961C72.0411 19.961 70.8317 19.6633 69.7551 19.063C68.6785 18.4627 67.8329 17.6476 67.2135 16.613C66.594 15.5783 66.2843 14.4168 66.2843 13.1332C66.2843 11.8302 66.594 10.6589 67.2135 9.62422C67.8329 8.58956 68.6834 7.77453 69.7551 7.17424C70.8514 6.55931 72.0608 6.25184 73.393 6.25184C74.4303 6.25184 75.389 6.44218 76.2641 6.82285C77.1391 7.20352 77.8962 7.74525 78.5353 8.45291L76.2395 10.7662C75.8904 10.3856 75.4726 10.0976 74.981 9.89752C74.509 9.69742 73.9781 9.59981 73.393 9.59981C72.7343 9.59981 72.1443 9.75599 71.6134 10.0635C71.1021 10.3514 70.6941 10.7614 70.3844 11.2884C70.0943 11.796 69.9468 12.4012 69.9468 13.1088C69.9468 13.797 70.0943 14.4119 70.3844 14.9585C70.6941 15.4856 71.107 15.9004 71.6134 16.2079C72.1443 16.4959 72.7343 16.6423 73.393 16.6423C73.9928 16.6423 74.5336 16.5447 75.0055 16.3446C75.4971 16.1249 75.9199 15.8175 76.2641 15.4222L78.5894 17.7355C77.9159 18.4627 77.1391 19.0142 76.2641 19.3948C75.389 19.7706 74.4303 19.961 73.393 19.961Z" fill="#006322"/>
<path d="M89.1002 19.7267V12.0595C89.1002 11.2787 88.8544 10.6442 88.3628 10.1562C87.8711 9.66813 87.232 9.42411 86.4455 9.42411C85.9342 9.42411 85.477 9.53148 85.0788 9.7511C84.6756 9.97072 84.3561 10.2782 84.1201 10.6735C83.8989 11.0737 83.7907 11.5325 83.7907 12.0595L82.3946 11.3519C82.3946 10.3172 82.6109 9.41923 83.0533 8.65788C83.4909 7.87701 84.0906 7.27184 84.8575 6.83748C85.6441 6.40312 86.5339 6.1835 87.5368 6.1835C88.5397 6.1835 89.4246 6.40312 90.1916 6.83748C90.9781 7.27184 91.5877 7.87213 92.0253 8.63348C92.4628 9.39483 92.684 10.2733 92.684 11.2738V19.7316H89.1002V19.7267ZM80.2118 19.7267V0.405075H83.7957V19.7267H80.2118Z" fill="#006322"/>
<path d="M44.1224 19.7267V0.405075H47.7063V19.7267H44.1224ZM41.0302 9.31186V6.1835H50.7985V9.31186H41.0302Z" fill="#006322"/>
<path fill-rule="evenodd" clip-rule="evenodd" d="M10.0535 15.6467C13.19 15.6467 15.7316 13.1186 15.7316 10C15.7316 6.88141 13.19 4.35334 10.0535 4.35334C6.91701 4.35334 4.37536 6.88141 4.37536 10C4.37536 13.1186 6.91701 15.6467 10.0535 15.6467ZM10.0535 20C15.6038 20 20.107 15.5246 20.107 10C20.107 4.47535 15.6038 0 10.0535 0C4.50318 0 0 4.47535 0 10C0 15.5246 4.49827 20 10.0535 20Z" fill="#006322"/>
</svg>
