<svg width="93" height="20" viewBox="0 0 93 20" fill="none" xmlns="http://www.w3.org/2000/svg">
<path d="M19.6548 19.7266L27.1765 0.405029H32.5941L40.0371 19.7266H34.9194L29.3101 3.48458H30.4064L24.6643 19.7266H19.6548ZM29.5411 15.5295L28.0516 11.6593H34.9194V15.5295H29.5411Z" fill="white" fill-opacity="0.376471"/>
<path d="M58.6742 19.961C57.2879 19.961 56.0589 19.673 54.9822 19.0922C53.9056 18.492 53.0502 17.6769 52.4111 16.6423C51.7917 15.6076 51.4819 14.4314 51.4819 13.1088C51.4819 11.8058 51.7818 10.6442 52.3865 9.62909C53.0059 8.59444 53.8466 7.77941 54.9036 7.17911C55.9605 6.56418 57.1355 6.25671 58.4334 6.25671C59.7116 6.25671 60.8324 6.54466 61.796 7.12543C62.7792 7.68668 63.5461 8.46755 64.0918 9.46316C64.6572 10.4441 64.9423 11.5569 64.9423 12.8063C64.9423 13.0405 64.9227 13.2845 64.8882 13.5383C64.8686 13.7726 64.8243 14.0459 64.7506 14.3533L56.6291 14.3826L55.5623 11.7179L63.084 11.6886L61.6338 12.8014C61.5993 12.0205 61.4519 11.3714 61.1962 10.8443C60.9602 10.3172 60.6014 9.92192 60.1294 9.64861C59.6722 9.36067 59.1069 9.21425 58.4334 9.21425C57.7205 9.21425 57.1011 9.37531 56.5751 9.7023C56.0441 10.0098 55.6361 10.4539 55.346 11.0347C55.0707 11.5959 54.938 12.2694 54.938 13.0454C54.938 13.8409 55.0855 14.5388 55.3755 15.1391C55.6852 15.7199 56.1228 16.1737 56.6881 16.5007C57.2535 16.8082 57.9122 16.9644 58.6595 16.9644C59.333 16.9644 59.9475 16.857 60.4932 16.6374C61.0389 16.4031 61.5158 16.0566 61.914 15.6027L64.0181 17.6964C63.379 18.4383 62.5973 18.9995 61.6633 19.3802C60.7439 19.7706 59.7509 19.961 58.6742 19.961Z" fill="white" fill-opacity="0.376471"/>
<path d="M73.3932 19.961C72.0412 19.961 70.8319 19.6633 69.7552 19.063C68.6786 18.4627 67.833 17.6476 67.2136 16.613C66.5941 15.5783 66.2844 14.4168 66.2844 13.1332C66.2844 11.8302 66.5941 10.6589 67.2136 9.62421C67.833 8.58956 68.6835 7.77453 69.7552 7.17423C70.8515 6.5593 72.0609 6.25183 73.3932 6.25183C74.4305 6.25183 75.3891 6.44217 76.2642 6.82284C77.1393 7.20351 77.8963 7.74524 78.5354 8.45291L76.2396 10.7662C75.8906 10.3856 75.4727 10.0976 74.9811 9.89751C74.5091 9.69742 73.9782 9.59981 73.3932 9.59981C72.7344 9.59981 72.1445 9.75598 71.6135 10.0634C71.1022 10.3514 70.6942 10.7613 70.3845 11.2884C70.0944 11.796 69.9469 12.4012 69.9469 13.1088C69.9469 13.797 70.0944 14.4119 70.3845 14.9585C70.6942 15.4856 71.1072 15.9004 71.6135 16.2079C72.1445 16.4959 72.7344 16.6423 73.3932 16.6423C73.9929 16.6423 74.5337 16.5447 75.0057 16.3446C75.4973 16.1249 75.9201 15.8175 76.2642 15.4222L78.5895 17.7355C77.916 18.4627 77.1393 19.0142 76.2642 19.3948C75.3891 19.7706 74.4305 19.961 73.3932 19.961Z" fill="white" fill-opacity="0.376471"/>
<path d="M89.1001 19.7267V12.0595C89.1001 11.2786 88.8542 10.6442 88.3626 10.1561C87.871 9.66809 87.2319 9.42406 86.4453 9.42406C85.9341 9.42406 85.4769 9.53144 85.0786 9.75105C84.6755 9.97067 84.356 10.2781 84.12 10.6735C83.8988 11.0737 83.7906 11.5324 83.7906 12.0595L82.3944 11.3518C82.3944 10.3172 82.6107 9.41918 83.0532 8.65784C83.4907 7.87697 84.0905 7.27179 84.8574 6.83744C85.644 6.40308 86.5338 6.18346 87.5367 6.18346C88.5396 6.18346 89.4245 6.40308 90.1914 6.83744C90.978 7.27179 91.5876 7.87209 92.0252 8.63344C92.4627 9.39478 92.6839 10.2733 92.6839 11.2737V19.7315H89.1001V19.7267ZM80.2117 19.7267V0.405029H83.7955V19.7267H80.2117Z" fill="white" fill-opacity="0.376471"/>
<path d="M44.1223 19.7266V0.405029H47.7061V19.7266H44.1223ZM41.03 9.31181V6.18346H50.7984V9.31181H41.03Z" fill="white" fill-opacity="0.376471"/>
<path fill-rule="evenodd" clip-rule="evenodd" d="M10.0535 15.6467C13.19 15.6467 15.7316 13.1186 15.7316 10C15.7316 6.88141 13.19 4.35334 10.0535 4.35334C6.91701 4.35334 4.37536 6.88141 4.37536 10C4.37536 13.1186 6.91701 15.6467 10.0535 15.6467ZM10.0535 20C15.6038 20 20.107 15.5246 20.107 10C20.107 4.47535 15.6038 0 10.0535 0C4.50318 0 0 4.47535 0 10C0 15.5246 4.49827 20 10.0535 20Z" fill="white" fill-opacity="0.376471"/>
</svg>
