<svg width="40" height="40" viewBox="0 0 40 40" fill="none" xmlns="http://www.w3.org/2000/svg">
<rect x="11" y="4" width="16" height="32" rx="1.5" fill="#ADB6BF"/>
<circle cx="19" cy="28" r="4" fill="#6F7477" fill-opacity="0.5"/>
<path fill-rule="evenodd" clip-rule="evenodd" d="M15 7C15.5556 7 16 7.44444 16 8C16 8.55556 15.5556 9 15 9C14.4444 9 14 8.55556 14 8C14 7.44444 14.4444 7 15 7Z" fill="white"/>
<path fill-rule="evenodd" clip-rule="evenodd" d="M19 7C19.5556 7 20 7.44444 20 8C20 8.55556 19.5556 9 19 9C18.4444 9 18 8.55556 18 8C18 7.44444 18.4444 7 19 7Z" fill="white"/>
<path fill-rule="evenodd" clip-rule="evenodd" d="M23 7C23.5556 7 24 7.44444 24 8C24 8.55556 23.5556 9 23 9C22.4444 9 22 8.55556 22 8C22 7.44444 22.4444 7 23 7Z" fill="white"/>
<path fill-rule="evenodd" clip-rule="evenodd" d="M15 11C15.5556 11 16 11.4444 16 12C16 12.5556 15.5556 13 15 13C14.4444 13 14 12.5556 14 12C14 11.4444 14.4444 11 15 11Z" fill="white"/>
<path fill-rule="evenodd" clip-rule="evenodd" d="M15 15C15.5556 15 16 15.4444 16 16C16 16.5556 15.5556 17 15 17C14.4444 17 14 16.5556 14 16C14 15.4444 14.4444 15 15 15Z" fill="white"/>
<path fill-rule="evenodd" clip-rule="evenodd" d="M15 19C15.5556 19 16 19.4444 16 20C16 20.5556 15.5556 21 15 21C14.4444 21 14 20.5556 14 20C14 19.4444 14.4444 19 15 19Z" fill="white"/>
<path fill-rule="evenodd" clip-rule="evenodd" d="M19 11C19.5556 11 20 11.4444 20 12C20 12.5556 19.5556 13 19 13C18.4444 13 18 12.5556 18 12C18 11.4444 18.4444 11 19 11Z" fill="white"/>
<path fill-rule="evenodd" clip-rule="evenodd" d="M19 15C19.5556 15 20 15.4444 20 16C20 16.5556 19.5556 17 19 17C18.4444 17 18 16.5556 18 16C18 15.4444 18.4444 15 19 15Z" fill="white"/>
<path fill-rule="evenodd" clip-rule="evenodd" d="M19 19C19.5556 19 20 19.4444 20 20C20 20.5556 19.5556 21 19 21C18.4444 21 18 20.5556 18 20C18 19.4444 18.4444 19 19 19Z" fill="white"/>
<path fill-rule="evenodd" clip-rule="evenodd" d="M23 11C23.5556 11 24 11.4444 24 12C24 12.5556 23.5556 13 23 13C22.4444 13 22 12.5556 22 12C22 11.4444 22.4444 11 23 11Z" fill="white"/>
<path fill-rule="evenodd" clip-rule="evenodd" d="M23 15C23.5556 15 24 15.4444 24 16C24 16.5556 23.5556 17 23 17C22.4444 17 22 16.5556 22 16C22 15.4444 22.4444 15 23 15Z" fill="white"/>
<path fill-rule="evenodd" clip-rule="evenodd" d="M23 19C23.5556 19 24 19.4444 24 20C24 20.5556 23.5556 21 23 21C22.4444 21 22 20.5556 22 20C22 19.4444 22.4444 19 23 19Z" fill="white"/>
<rect x="17" y="26" width="15" height="4" rx="1.5" fill="#6F7477"/>
</svg>
