<svg width="40" height="40" viewBox="0 0 40 40" fill="none" xmlns="http://www.w3.org/2000/svg">
<path d="M11.7083 5V7.94167M28.3749 5V7.94167" stroke="#6F7477" stroke-width="2" stroke-linecap="round" stroke-linejoin="round"/>
<path fill-rule="evenodd" clip-rule="evenodd" d="M31.6657 36H8.33426C6.49186 36 5 34.6002 5 32.8749V11.1251C5 9.39829 6.49352 8 8.33426 8H31.6657C33.5081 8 35 9.39984 35 11.1251V32.8749C35.0017 34.6002 33.5081 36 31.6657 36Z" fill="#B3E6D1"/>
<path fill-rule="evenodd" clip-rule="evenodd" d="M28.1818 27.4545C29.1859 27.4545 30 28.2687 30 29.2727C30 30.2768 29.1859 31.0909 28.1818 31.0909C27.1778 31.0909 26.3636 30.2768 26.3636 29.2727C26.3636 28.2687 27.1778 27.4545 28.1818 27.4545Z" fill="#00A36B"/>
<path fill-rule="evenodd" clip-rule="evenodd" d="M19.9999 27.4545C21.01 27.4545 21.8181 28.2626 21.8181 29.2727C21.8181 30.2828 21.01 31.0909 19.9999 31.0909C18.9898 31.0909 18.1818 30.2828 18.1818 29.2727C18.1818 28.2626 18.9898 27.4545 19.9999 27.4545Z" fill="#00A36B"/>
<path fill-rule="evenodd" clip-rule="evenodd" d="M11.8182 27.4545C12.8283 27.4545 13.6364 28.2626 13.6364 29.2727C13.6364 30.2828 12.8283 31.0909 11.8182 31.0909C10.8081 31.0909 10 30.2828 10 29.2727C10 28.2626 10.8081 27.4545 11.8182 27.4545Z" fill="#00A36B"/>
<path fill-rule="evenodd" clip-rule="evenodd" d="M28.1818 20.1818C29.1859 20.1818 30 20.996 30 22C30 23.004 29.1859 23.8182 28.1818 23.8182C27.1778 23.8182 26.3636 23.004 26.3636 22C26.3636 20.996 27.1778 20.1818 28.1818 20.1818Z" fill="#00A36B"/>
<path fill-rule="evenodd" clip-rule="evenodd" d="M19.9999 20.1818C21.01 20.1818 21.8181 20.9899 21.8181 22C21.8181 23.0101 21.01 23.8182 19.9999 23.8182C18.9898 23.8182 18.1818 23.0101 18.1818 22C18.1818 20.9899 18.9898 20.1818 19.9999 20.1818Z" fill="#00A36B"/>
<path fill-rule="evenodd" clip-rule="evenodd" d="M11.8182 20.1818C12.8283 20.1818 13.6364 20.9899 13.6364 22C13.6364 23.0101 12.8283 23.8182 11.8182 23.8182C10.8081 23.8182 10 23.0101 10 22C10 20.9899 10.8081 20.1818 11.8182 20.1818Z" fill="#00A36B"/>
<path fill-rule="evenodd" clip-rule="evenodd" d="M28.1818 12.9091C29.1859 12.9091 30 13.7232 30 14.7273C30 15.7313 29.1859 16.5455 28.1818 16.5455C27.1778 16.5455 26.3636 15.7313 26.3636 14.7273C26.3636 13.7232 27.1778 12.9091 28.1818 12.9091Z" fill="#00A36B"/>
<path fill-rule="evenodd" clip-rule="evenodd" d="M19.9999 12.9091C21.01 12.9091 21.8181 13.7172 21.8181 14.7273C21.8181 15.7374 21.01 16.5455 19.9999 16.5455C18.9898 16.5455 18.1818 15.7374 18.1818 14.7273C18.1818 13.7172 18.9898 12.9091 19.9999 12.9091Z" fill="#00A36B"/>
<path fill-rule="evenodd" clip-rule="evenodd" d="M11.8182 12.9091C12.8283 12.9091 13.6364 13.7172 13.6364 14.7273C13.6364 15.7374 12.8283 16.5455 11.8182 16.5455C10.8081 16.5455 10 15.7374 10 14.7273C10 13.7172 10.8081 12.9091 11.8182 12.9091Z" fill="#00A36B"/>
</svg>
