<svg width="40" height="40" viewBox="0 0 40 40" fill="none" xmlns="http://www.w3.org/2000/svg">
<path opacity="0.6" fill-rule="evenodd" clip-rule="evenodd" d="M6.63333 27.1H12.1833C13.9667 27.1 15.5333 25.9 15.9833 24.1667C17.2333 19.3833 21.55 16.0667 26.5 16.0667H33.3667C34.2667 16.0667 35 16.8 35 17.7V22.3667C35 23.2667 34.2667 24 33.3667 24H27.8C26.0167 24 24.45 25.2 24 26.9333C22.75 31.7 18.4333 35.0333 13.5 35.0333H6.63333C5.73333 35.0333 5 34.3 5 33.4V28.7333C5 27.8333 5.73333 27.1 6.63333 27.1Z" fill="#CBDFFA"/>
<path opacity="0.6" fill-rule="evenodd" clip-rule="evenodd" d="M33.3667 16.05C34.2667 16.05 35 16.7833 35 17.6833V22.35C35 23.25 34.2667 23.9833 33.3667 23.9833H26.5C21.5667 23.9833 17.25 20.65 16 15.8833C15.55 14.15 13.9833 12.95 12.2 12.95H6.63333C5.73333 12.95 5 12.2167 5 11.3167V6.65C5 5.75 5.73333 5.01666 6.63333 5.01666H13.5C18.4333 5.01666 22.75 8.35 24.0167 13.1167C24.4667 14.85 26.0333 16.05 27.8167 16.05H33.3667Z" fill="#CBDFFA"/>
<path fill-rule="evenodd" clip-rule="evenodd" d="M6.48204 13H11.518C12.3346 13 13 12.2605 13 11.3529V6.64706C13 5.7395 12.3346 5 11.518 5H6.48204C5.66541 5 5 5.7395 5 6.64706V11.3529C5 12.2605 5.66541 13 6.48204 13Z" fill="#217CF9"/>
<path fill-rule="evenodd" clip-rule="evenodd" d="M6.48204 35H11.518C12.3346 35 13 34.2605 13 33.3529V28.6471C13 27.7395 12.3346 27 11.518 27H6.48204C5.66541 27 5 27.7395 5 28.6471V33.3529C5 34.2605 5.66541 35 6.48204 35Z" fill="#217CF9"/>
<path fill-rule="evenodd" clip-rule="evenodd" d="M28.482 24H33.518C34.3346 24 35 23.2605 35 22.3529V17.6471C35 16.7395 34.3346 16 33.518 16H28.482C27.6654 16 27 16.7395 27 17.6471V22.3529C27 23.2605 27.6654 24 28.482 24Z" fill="#217CF9"/>
</svg>
