<svg width="40" height="40" viewBox="0 0 40 40" fill="none" xmlns="http://www.w3.org/2000/svg">
<rect x="17" y="4" width="18" height="32" rx="2" fill="#E5E8EB"/>
<path d="M17 33H35C35 33.9319 35 34.3978 34.8478 34.7654C34.6448 35.2554 34.2554 35.6448 33.7654 35.8478C33.3978 36 32.9319 36 32 36H20C19.0681 36 18.6022 36 18.2346 35.8478C17.7446 35.6448 17.3552 35.2554 17.1522 34.7654C17 34.3978 17 33.9319 17 33Z" fill="#D1D6DB"/>
<path d="M17 7H35C35 6.06812 35 5.60218 34.8478 5.23463C34.6448 4.74458 34.2554 4.35523 33.7654 4.15224C33.3978 4 32.9319 4 32 4H20C19.0681 4 18.6022 4 18.2346 4.15224C17.7446 4.35523 17.3552 4.74458 17.1522 5.23463C17 5.60218 17 6.06812 17 7Z" fill="#D1D6DB"/>
<path d="M3 20.2219C3 16.7858 5.78552 14.0004 9.22168 14.0002C12.658 14.0002 15.4443 16.7857 15.4443 20.2219C15.4443 23.6581 12.6579 26.4436 9.22168 26.4436C5.78555 26.4435 3.00006 23.658 3 20.2219ZM4.77832 20.2219C4.77855 21.2035 5.57396 21.9993 6.55566 21.9993C7.53735 21.9992 8.33278 21.2035 8.33301 20.2219C8.33301 19.2401 7.53748 18.4436 6.55566 18.4436C5.57382 18.4436 4.77832 19.2401 4.77832 20.2219Z" fill="#FF7A86"/>
<path d="M12.6 22.5031C12.0399 22.5031 11.7599 22.5031 11.546 22.3941C11.3578 22.2982 11.2049 22.1452 11.109 21.957C11 21.7431 11 21.4631 11 20.9031L11 19.5401C11 18.98 11 18.7 11.109 18.4861C11.2049 18.2979 11.3578 18.145 11.546 18.0491C11.7599 17.9401 12.0399 17.9401 12.6 17.9401L24.5678 17.9401C24.8725 17.9401 25.0248 17.9401 25.1637 17.9812C25.2867 18.0176 25.4016 18.0774 25.502 18.1572C25.6154 18.2473 25.7029 18.372 25.8778 18.6214L26.3557 19.3029C26.5878 19.6338 26.7039 19.7993 26.7488 19.9794C26.7885 20.1384 26.7885 20.3047 26.7488 20.4638C26.7039 20.6438 26.5878 20.8093 26.3557 21.1402L25.8778 21.8217C25.7029 22.0711 25.6154 22.1958 25.502 22.286C25.4016 22.3658 25.2867 22.4255 25.1637 22.4619C25.0248 22.5031 24.8725 22.5031 24.5678 22.5031L23.536 22.5031C23.486 22.5031 23.4609 22.5031 23.4371 22.5019C23.1646 22.4889 22.9092 22.3651 22.7301 22.1592C22.7145 22.1412 22.699 22.1215 22.668 22.0822C22.593 21.9872 22.5555 21.9397 22.5225 21.9052C22.1287 21.4936 21.4712 21.4936 21.0775 21.9052C21.0445 21.9397 21.007 21.9872 20.932 22.0822L20.8478 22.189C20.6913 22.3873 20.4526 22.5031 20.2 22.5031C19.9474 22.5031 19.7087 22.3873 19.5522 22.189L19.468 22.0822C19.393 21.9872 19.3555 21.9397 19.3225 21.9052C18.9287 21.4937 18.2712 21.4937 17.8775 21.9052C17.8445 21.9397 17.807 21.9872 17.732 22.0822C17.701 22.1215 17.6855 22.1412 17.6699 22.1592C17.4908 22.3651 17.2354 22.4889 16.9629 22.5019C16.939 22.5031 16.914 22.5031 16.864 22.5031L12.6 22.5031Z" fill="#FF7A86"/>
</svg>
