<svg width="40" height="40" viewBox="0 0 40 40" fill="none" xmlns="http://www.w3.org/2000/svg">
<rect x="8" y="3" width="18" height="26" rx="2" fill="#D1D6DB"/>
<rect x="11" y="6" width="12" height="20" rx="0.5" fill="white"/>
<rect x="7" y="34" width="20" height="3" rx="1" fill="#D1D6DB"/>
<rect x="15" y="29" width="4" height="6" fill="#D1D6DB"/>
<path fill-rule="evenodd" clip-rule="evenodd" d="M33 16C33 16.9193 32.8189 17.8295 32.4672 18.6788C32.1154 19.5281 31.5998 20.2997 30.9497 20.9497C30.2997 21.5998 29.5281 22.1154 28.6788 22.4672C27.8295 22.8189 26.9193 23 26 23C25.0807 23 24.1705 22.8189 23.3212 22.4672C22.4719 22.1154 21.7003 21.5998 21.0503 20.9497C20.4002 20.2997 19.8846 19.5281 19.5328 18.6788C19.1811 17.8295 19 16.9193 19 16C19 14.1435 19.7375 12.363 21.0503 11.0503C22.363 9.7375 24.1435 9 26 9C27.8565 9 29.637 9.7375 30.9497 11.0503C32.2625 12.363 33 14.1435 33 16Z" fill="#2EB3B2"/>
<path d="M23 15.5528L25.2775 18L29 14" stroke="white" stroke-width="1.5" stroke-linecap="round" stroke-linejoin="round"/>
</svg>
