<svg width="40" height="40" viewBox="0 0 40 40" fill="none" xmlns="http://www.w3.org/2000/svg">
<path fill-rule="evenodd" clip-rule="evenodd" d="M20 25.372C17.1083 25.372 14.6503 23.0586 14.6503 20.0223C14.6503 16.986 16.9637 14.6726 20 14.6726C23.0363 14.6726 25.3497 16.986 25.3497 20.0223C25.3497 23.0586 22.8917 25.372 20 25.372ZM33.0128 22.914C32.2899 22.1911 31.8561 21.179 31.8561 20.1669C31.8561 19.1548 32.2899 18.1427 33.0128 17.4197L34.3141 15.9739C34.8924 15.3955 35.037 14.528 34.6032 13.8051L32.7236 10.6242C32.2899 9.90125 31.5669 9.61208 30.6994 9.75667L28.8198 10.1904C27.8077 10.4796 26.651 10.335 25.7835 9.75667C24.916 9.17832 24.193 8.45539 23.9039 7.44328L23.3255 5.56366C23.3255 4.69614 22.6026 4.1178 21.8796 4.1178H18.265C17.3975 4.1178 16.8191 4.69614 16.5299 5.41907L15.9516 7.44328C15.6624 8.3108 15.0841 9.17832 14.2166 9.61208C14.072 9.61208 14.072 9.75667 13.9274 9.75667C13.0599 10.1904 12.0478 10.335 11.1802 10.1904L9.15604 9.61208C8.43311 9.46749 7.56559 9.75667 7.13183 10.4796L5.25221 13.6605C4.81845 14.3834 4.96303 15.2509 5.54138 15.8293L6.84266 17.2752C7.56559 17.9981 7.99935 19.0102 7.99935 20.0223C7.99935 21.0344 7.56559 22.0465 6.84266 22.7694L6.11972 23.4924C5.25221 24.5045 4.96303 25.9503 5.68597 27.107L6.98724 29.4204C7.421 30.1433 8.14393 30.4325 9.01145 30.2879L11.0357 29.7096C11.9032 29.4204 12.9153 29.565 13.7828 30.1433C13.9274 30.1433 13.9274 30.2879 14.072 30.2879C14.9395 30.7217 15.5178 31.5892 15.807 32.4567L16.3854 34.4809C16.6745 35.2039 17.2529 35.7822 18.1204 35.7822H21.7351C22.6026 35.7822 23.1809 35.2039 23.4701 34.4809L24.0484 32.4567C24.3376 31.5892 24.916 30.7217 25.7835 30.2879C25.9281 30.2879 25.9281 30.1433 26.0726 30.1433C26.9402 29.7096 27.9523 29.565 28.8198 29.7096L30.844 30.2879C31.5669 30.4325 32.4344 30.1433 32.8682 29.4204L34.7478 26.2395C35.1816 25.5166 35.037 24.6491 34.4587 24.0707L33.0128 22.914Z" fill="#ADB6BF"/>
</svg>
