<svg width="151" height="20" viewBox="0 0 151 20" fill="none" xmlns="http://www.w3.org/2000/svg">
<g clip-path="url(#clip0_186_826)">
<path d="M77.7233 14.3885C77.0137 14.0528 76.446 13.6211 76.0202 12.9976C75.5945 12.4221 75.4053 11.7506 75.4053 10.9832H77.3448C77.3921 11.6547 77.676 12.1822 78.149 12.6619C78.6221 13.0935 79.2843 13.3333 80.1832 13.3333C81.0347 13.3333 81.7442 13.0935 82.2173 12.6619C82.7377 12.2302 82.9742 11.6547 82.9742 10.9832C82.9742 10.4556 82.8323 10.024 82.5484 9.68824C82.2646 9.35251 81.8862 9.1127 81.4604 8.92086C81.0347 8.72901 80.4197 8.53716 79.7101 8.34532C78.8113 8.10551 78.0544 7.8657 77.534 7.62589C76.9664 7.38609 76.4933 7.00239 76.1149 6.47481C75.7364 5.94724 75.5472 5.27577 75.5472 4.41246C75.5472 3.64508 75.7364 2.97362 76.1149 2.39808C76.4933 1.82254 77.061 1.34292 77.7233 1.00719C78.4328 0.671457 79.237 0.527573 80.1358 0.527573C81.4131 0.527573 82.5011 0.863304 83.3053 1.53477C84.1095 2.20623 84.5826 3.06954 84.7245 4.17266H82.7377C82.6904 3.64508 82.4065 3.16546 81.8862 2.73381C81.4131 2.30215 80.7508 2.11031 79.9466 2.11031C79.1897 2.11031 78.5748 2.30215 78.1017 2.68585C77.6286 3.06954 77.3921 3.64508 77.3921 4.3645C77.3921 4.89208 77.534 5.27577 77.8179 5.61151C78.1017 5.94724 78.4328 6.18704 78.8586 6.33093C79.2843 6.52278 79.852 6.66666 80.6089 6.90647C81.5077 7.14628 82.2646 7.43405 82.8323 7.67386C83.4 7.91366 83.873 8.29736 84.2515 8.82493C84.6299 9.35251 84.8664 10.024 84.8664 10.9352C84.8664 11.6067 84.6772 12.2782 84.3461 12.8537C83.9676 13.4772 83.4473 13.9568 82.7377 14.3405C82.0281 14.7242 81.2239 14.9161 80.2305 14.9161C79.237 14.9161 78.4328 14.7242 77.7233 14.3885Z" fill="#006134"/>
<path d="M96.882 3.69304V14.7242H95.0844V13.0935C94.7532 13.6691 94.2802 14.1007 93.6652 14.4364C93.0502 14.7722 92.388 14.9161 91.6311 14.9161C90.7796 14.9161 90.0227 14.7242 89.3604 14.3885C88.6981 14.0528 88.1304 13.4772 87.752 12.8057C87.3735 12.0863 87.1843 11.223 87.1843 10.2158V3.69304H88.9819V9.92805C88.9819 11.0312 89.2658 11.8465 89.7861 12.4221C90.3065 12.9976 91.0634 13.2854 92.0095 13.2854C92.9556 13.2854 93.7598 12.9976 94.2802 12.3741C94.8479 11.7506 95.1317 10.8873 95.1317 9.7362V3.69304H96.882Z" fill="#006134"/>
<path d="M103.174 4.17265C103.883 3.74099 104.688 3.54915 105.634 3.54915C106.58 3.54915 107.479 3.78896 108.283 4.26857C109.087 4.74819 109.702 5.41965 110.128 6.235C110.601 7.09831 110.79 8.05754 110.79 9.20862C110.79 10.3117 110.554 11.3189 110.128 12.1822C109.655 13.0456 109.04 13.717 108.283 14.1966C107.479 14.6762 106.627 14.9161 105.634 14.9161C104.688 14.9161 103.883 14.7242 103.174 14.2926C102.464 13.8609 101.944 13.3333 101.565 12.7098V20H99.7678V3.69303H101.565V5.75538C101.897 5.13188 102.464 4.6043 103.174 4.17265ZM108.472 7.00239C108.141 6.37888 107.715 5.89927 107.148 5.6115C106.58 5.27577 105.965 5.13188 105.303 5.13188C104.64 5.13188 104.025 5.27577 103.458 5.6115C102.89 5.94723 102.464 6.42685 102.086 7.05035C101.755 7.67385 101.565 8.39327 101.565 9.20862C101.565 10.024 101.755 10.7914 102.086 11.4149C102.417 12.0384 102.89 12.518 103.458 12.8537C104.025 13.1894 104.64 13.3333 105.303 13.3333C105.965 13.3333 106.58 13.1894 107.148 12.8537C107.715 12.518 108.141 12.0384 108.472 11.4149C108.803 10.7914 108.992 10.0719 108.992 9.20862C108.945 8.34531 108.803 7.62589 108.472 7.00239Z" fill="#006134"/>
<path d="M116.372 4.17265C117.082 3.74099 117.886 3.54915 118.832 3.54915C119.778 3.54915 120.677 3.78896 121.481 4.26857C122.285 4.74819 122.9 5.41965 123.326 6.235C123.799 7.09831 123.988 8.05754 123.988 9.20862C123.988 10.3117 123.752 11.3189 123.326 12.1822C122.853 13.0456 122.238 13.717 121.481 14.1966C120.677 14.6762 119.825 14.9161 118.832 14.9161C117.886 14.9161 117.082 14.7242 116.372 14.2926C115.662 13.8609 115.142 13.3333 114.764 12.7098V20H112.966V3.69303H114.764V5.75538C115.142 5.13188 115.662 4.6043 116.372 4.17265ZM121.67 7.00239C121.339 6.37888 120.913 5.89927 120.346 5.6115C119.778 5.27577 119.163 5.13188 118.501 5.13188C117.839 5.13188 117.224 5.27577 116.656 5.6115C116.088 5.94723 115.662 6.42685 115.284 7.05035C114.953 7.67385 114.764 8.39327 114.764 9.20862C114.764 10.024 114.953 10.7914 115.284 11.4149C115.615 12.0384 116.088 12.518 116.656 12.8537C117.224 13.1894 117.839 13.3333 118.501 13.3333C119.163 13.3333 119.778 13.1894 120.346 12.8537C120.913 12.518 121.339 12.0384 121.67 11.4149C122.001 10.7914 122.191 10.0719 122.191 9.20862C122.191 8.34531 122.001 7.62589 121.67 7.00239Z" fill="#006134"/>
<path d="M128.198 14.2446C127.347 13.765 126.732 13.0935 126.259 12.2302C125.786 11.3669 125.549 10.3597 125.549 9.20862C125.549 8.05754 125.786 7.09831 126.259 6.235C126.732 5.37169 127.394 4.70023 128.246 4.22061C129.097 3.741 129.996 3.54915 131.037 3.54915C132.078 3.54915 133.024 3.78896 133.828 4.22061C134.679 4.70023 135.342 5.32373 135.815 6.18704C136.288 7.05035 136.524 8.05754 136.524 9.20862C136.524 10.3597 136.288 11.3669 135.767 12.2302C135.247 13.0935 134.585 13.765 133.733 14.2446C132.882 14.7242 131.936 14.964 130.895 14.964C129.949 14.9161 129.003 14.7242 128.198 14.2446ZM132.787 12.8537C133.355 12.5659 133.828 12.0863 134.159 11.4628C134.49 10.8393 134.679 10.0719 134.679 9.20862C134.679 8.34531 134.49 7.57793 134.159 6.95442C133.828 6.33092 133.355 5.89927 132.787 5.56354C132.219 5.27577 131.604 5.13188 130.989 5.13188C130.327 5.13188 129.712 5.27577 129.192 5.56354C128.624 5.85131 128.198 6.33092 127.867 6.95442C127.536 7.57793 127.347 8.34531 127.347 9.20862C127.347 10.1199 127.489 10.8873 127.82 11.4628C128.151 12.0863 128.577 12.518 129.145 12.8537C129.665 13.1415 130.28 13.2854 130.942 13.2854C131.604 13.3333 132.219 13.1894 132.787 12.8537Z" fill="#006134"/>
<path d="M141.917 4.02877C142.485 3.69304 143.242 3.50119 144.093 3.50119V5.37169H143.62C141.586 5.37169 140.593 6.47481 140.593 8.72901V14.7242H138.795V3.69304H140.593V5.46762C140.876 4.89208 141.302 4.3645 141.917 4.02877Z" fill="#006134"/>
<path d="M148.162 5.22781V11.7506C148.162 12.2782 148.256 12.6619 148.493 12.9017C148.729 13.1415 149.108 13.2374 149.675 13.2374H151V14.7722H149.392C148.398 14.7722 147.641 14.5324 147.121 14.0528C146.601 13.5731 146.364 12.8058 146.364 11.7506V5.22781H144.945V3.69304H146.364V0.959229H148.162V3.741H151V5.22781H148.162Z" fill="#006134"/>
<path d="M19.9631 0.287766L14.4756 14.8201H18.1181L21.9499 3.78896L23.6056 8.77697H20.6253L21.7134 11.6547H24.599L25.6871 14.8201H29.4242L23.984 0.287766H19.9631Z" fill="#006134"/>
<path d="M45.4136 5.3717C44.7041 4.94005 43.8999 4.70024 42.9538 4.70024C42.0076 4.70024 41.1561 4.94005 40.3519 5.3717C39.595 5.80336 38.9801 6.42686 38.507 7.19425C38.0813 7.96163 37.8447 8.82494 37.8447 9.78417C37.8447 10.7914 38.0813 11.6547 38.507 12.4221C38.9801 13.1894 39.595 13.813 40.3992 14.2446C41.2034 14.6763 42.1022 14.9161 43.0957 14.9161C43.8999 14.9161 44.6094 14.7722 45.2717 14.4844C45.934 14.1966 46.549 13.765 47.022 13.2374L45.461 11.6547C45.1771 11.9904 44.7987 12.2302 44.4202 12.4221C43.9945 12.5659 43.5687 12.6619 43.0957 12.6619C42.528 12.6619 42.0549 12.5659 41.6292 12.3261C41.2034 12.0863 40.8723 11.7506 40.6831 11.3189C40.4465 10.8873 40.3519 10.3597 40.3519 9.73621C40.3519 9.16067 40.4465 8.63309 40.6358 8.20144C40.8723 7.76979 41.1561 7.43405 41.5346 7.19425C41.913 6.95444 42.3861 6.81055 42.9064 6.81055C43.3795 6.81055 43.8053 6.90648 44.1364 7.14628C44.4675 7.33813 44.7514 7.67386 44.9406 8.05755C45.0352 8.2494 45.0825 8.44125 45.1771 8.68106H40.825L41.6292 10.6954H47.5897C47.637 10.4556 47.6843 10.2638 47.6843 10.0719C47.7316 9.8801 47.7316 9.68825 47.7316 9.54436C47.7316 8.58513 47.5424 7.76978 47.1167 7.05036C46.7382 6.3789 46.1705 5.7554 45.4136 5.3717Z" fill="#006134"/>
<path d="M55.1585 12.2782C54.8274 12.4221 54.4016 12.518 53.9759 12.518C53.5028 12.518 53.077 12.4221 52.6513 12.1823C52.2728 11.9424 51.989 11.6547 51.7525 11.223C51.516 10.7914 51.4213 10.3597 51.4213 9.83213C51.4213 9.30456 51.516 8.82494 51.7525 8.44125C51.989 8.05755 52.2728 7.72182 52.6513 7.52998C53.0297 7.29017 53.4555 7.19425 53.9759 7.19425C54.4016 7.19425 54.78 7.29017 55.1585 7.43405C55.5369 7.57794 55.8208 7.81775 56.1046 8.10552L57.8076 6.3789C57.3346 5.85132 56.7669 5.41967 56.1519 5.1319C55.4896 4.84413 54.8274 4.70024 54.0232 4.70024C53.0297 4.70024 52.1309 4.94005 51.3267 5.3717C50.5225 5.80336 49.9076 6.42686 49.4345 7.19425C48.9614 7.96163 48.7722 8.82494 48.7722 9.83213C48.7722 10.7914 49.0087 11.6547 49.4345 12.4221C49.9076 13.1894 50.5225 13.813 51.3267 14.2446C52.1309 14.6763 53.0297 14.9161 54.0232 14.9161C54.78 14.9161 55.4896 14.7722 56.1519 14.4844C56.8142 14.1966 57.3819 13.765 57.8549 13.2374L56.1519 11.5108C55.8208 11.8945 55.4896 12.1343 55.1585 12.2782Z" fill="#006134"/>
<path d="M66.3226 5.13189C65.7549 4.79616 65.0926 4.65227 64.383 4.65227C63.6735 4.65227 63.0112 4.79616 62.3962 5.13189C62.1124 5.32374 61.8285 5.51558 61.592 5.75539V0.287766H58.9429V14.8201H61.592V9.06474C61.592 8.68105 61.6866 8.34532 61.8285 8.00959C62.0177 7.72182 62.2543 7.48201 62.5381 7.33812C62.8219 7.19424 63.1531 7.09832 63.5315 7.09832C64.0992 7.09832 64.5723 7.29016 64.9507 7.62589C65.3292 8.00959 65.4711 8.4892 65.4711 9.06474V14.8201H68.1202V8.44124C68.1202 7.67386 67.9783 7.05035 67.6471 6.47482C67.3633 5.89928 66.8902 5.46762 66.3226 5.13189Z" fill="#006134"/>
<path d="M35.0536 0.287766H32.4518V4.65227H30.1812V7.00239H32.4518V14.8201H35.0536V7.00239H37.3716V4.65227H35.0536V0.287766Z" fill="#006134"/>
<path d="M7.3797 0C3.3114 0 0 3.35731 0 7.52998C0 11.6547 3.3114 15.06 7.3797 15.06C11.448 15.06 14.7594 11.7026 14.7594 7.52998C14.7594 3.35731 11.4953 0 7.3797 0ZM7.3797 11.7506C5.06172 11.7506 3.21679 9.83213 3.21679 7.52998C3.21679 5.22782 5.06172 3.30935 7.3797 3.30935C9.69768 3.30935 11.5426 5.22782 11.5426 7.52998C11.5426 9.83213 9.69768 11.7506 7.3797 11.7506Z" fill="#006134"/>
</g>
<defs>
<clipPath id="clip0_186_826">
<rect width="151" height="20" fill="white"/>
</clipPath>
</defs>
</svg>
