<?xml version="1.0" encoding="UTF-8"?>
<svg version="1.1" xmlns="http://www.w3.org/2000/svg" width="742" height="162">
<path d="M0 0 C0.89203125 0.28875 1.7840625 0.5775 2.703125 0.875 C17.97413577 6.2534692 30.67842341 18.06681689 40 31 C40.53367188 31.73347656 41.06734375 32.46695313 41.6171875 33.22265625 C53.09403915 50.55686483 55.5997946 73.48050549 52.38671875 93.640625 C49.5499965 107.52192126 42.53244938 120.61090603 33 131 C32.33613281 131.75539062 31.67226562 132.51078125 30.98828125 133.2890625 C16.8423995 148.50699814 -3.25131418 156.99071273 -23.81640625 158.16015625 C-44.2576798 158.73702655 -64.68728229 152.2501905 -80.1875 138.6875 C-81.81071432 137.14479711 -83.41522473 135.58216443 -85 134 C-85.77214844 133.23945313 -86.54429688 132.47890625 -87.33984375 131.6953125 C-103.93778026 114.38806246 -108.53561107 93.66402738 -108.28515625 70.3125 C-108.06092291 62.72237054 -106.61399653 56.15218495 -104 49 C-103.71125 48.10796875 -103.4225 47.2159375 -103.125 46.296875 C-96.43955195 27.31497785 -80.10030168 11.30855734 -62.23583984 2.68505859 C-42.89494715 -6.12674406 -20.04740257 -7.32696947 0 0 Z M-62.1875 47.1875 C-70.17567131 57.22277928 -73.27615822 68.38248965 -72.91015625 81.12890625 C-71.57757898 92.37346278 -65.99715912 103.38540207 -57.65234375 111.03125 C-47.57770615 118.50933152 -35.66665455 123.27679878 -23 122 C-10.18828656 119.90865034 0.99260316 114.43068799 9 104 C16.66528162 91.50644741 19.0298709 78.95641158 16.3515625 64.5 C12.90657745 53.19338239 5.73663869 43.51004054 -4.51953125 37.53125 C-24.74079847 27.10229059 -46.41182853 30.47667275 -62.1875 47.1875 Z " fill="#01842A" transform="translate(108,4)"/>
<path d="M0 0 C14.85 0 29.7 0 45 0 C47.43375 6.455625 49.8675 12.91125 52.375 19.5625 C58.45990614 35.68213258 64.58158583 51.78714394 70.75 67.875 C71.48365842 69.78938195 72.21730086 71.70377002 72.95092773 73.61816406 C76.22806128 82.16820527 79.50709741 90.71751128 82.79052734 99.26513672 C84.96654984 104.92992891 87.13979146 110.59578092 89.31038094 116.26265717 C90.48119275 119.31899542 91.65373222 122.37465254 92.82873535 125.42938232 C94.13786688 128.83315967 95.44245456 132.23864726 96.74609375 135.64453125 C97.32613411 137.14777199 97.32613411 137.14777199 97.91789246 138.68138123 C98.28070816 139.63190872 98.64352386 140.58243622 99.01733398 141.56176758 C99.32944321 142.37486893 99.64155243 143.18797028 99.96311951 144.02571106 C101.45408604 148.30254461 102.69852385 152.66174618 104 157 C90.14 157 76.28 157 62 157 C60.185 151.946875 58.37 146.89375 56.5 141.6875 C55.92572266 140.09639404 55.35144531 138.50528809 54.75976562 136.8659668 C54.30821766 135.60218509 53.85702177 134.33827752 53.40625 133.07421875 C53.16874023 132.42022095 52.93123047 131.76622314 52.68652344 131.09240723 C51.67621761 128.24682183 51 126.04613332 51 123 C40.44 123 29.88 123 19 123 C17.7625 119.9475 16.525 116.895 15.25 113.75 C14.67813965 112.34766113 14.67813965 112.34766113 14.09472656 110.91699219 C11.44191522 104.32705041 9.25820078 97.77460233 7 91 C17.56 91 28.12 91 39 91 C33.39 74.5 27.78 58 22 41 C14.40060029 62.41048267 6.80296733 83.82092459 -0.69921875 105.265625 C-0.93625456 105.94316078 -1.17329037 106.62069656 -1.41750908 107.31876373 C-3.76487176 114.02925822 -6.11020534 120.74045911 -8.45280552 127.45261765 C-9.11801525 129.35830291 -9.78359189 131.26385961 -10.44929504 133.16937256 C-11.26453811 135.50328105 -12.07903358 137.83745089 -12.8926239 140.17193604 C-13.44150017 141.74295074 -13.44150017 141.74295074 -14.00146484 143.34570312 C-14.47415298 144.70072937 -14.47415298 144.70072937 -14.95639038 146.08312988 C-16.26364206 149.73687483 -17.63744382 153.36651686 -19 157 C-32.53 157 -46.06 157 -60 157 C-59.32493076 153.6246538 -58.73577516 151.01321879 -57.53564453 147.89550781 C-57.23589218 147.11105789 -56.93613983 146.32660797 -56.62730408 145.51838684 C-56.29912186 144.67185043 -55.97093964 143.82531403 -55.6328125 142.953125 C-55.11377098 141.60035713 -55.11377098 141.60035713 -54.58424377 140.22026062 C-53.43512409 137.2286332 -52.28014933 134.23930386 -51.125 131.25 C-50.30937942 129.13104554 -49.49403603 127.01198436 -48.67895508 124.89282227 C-46.12564205 118.2594278 -43.56364163 111.62940834 -41 105 C-40.60306946 103.97308044 -40.20613892 102.94616089 -39.79718018 101.88812256 C-34.73304663 88.78711384 -29.65314901 75.69226151 -24.56494141 62.60058594 C-22.50743033 57.30664065 -20.45161645 52.01203783 -18.39641285 46.71719646 C-16.19832641 41.0543722 -13.9991175 35.39198452 -11.79946899 29.72976685 C-10.85369052 27.29487914 -9.90819258 24.85988245 -8.96298218 22.42477417 C-7.65074177 19.04453496 -6.33725897 15.66478119 -5.0234375 12.28515625 C-4.62960373 11.26994904 -4.23576996 10.25474182 -3.83000183 9.20877075 C-3.29032524 7.82164383 -3.29032524 7.82164383 -2.73974609 6.40649414 C-2.42621185 5.5994252 -2.11267761 4.79235626 -1.78964233 3.96083069 C-1 2 -1 2 0 0 Z " fill="#01842A" transform="translate(217,3)"/>
<path d="M0 0 C9.57 0 19.14 0 29 0 C29.33 18.48 29.66 36.96 30 56 C32.97 54.02 35.94 52.04 39 50 C50.82058251 44.95886922 64.10073776 44.6198319 76.13671875 49.19140625 C87.84039012 54.58067525 94.24398774 62.06882737 99 74 C100.0886765 78.23910764 100.13550065 82.37963557 100.11352539 86.7277832 C100.11367142 87.48929184 100.11381744 88.25080048 100.1139679 89.03538513 C100.11327387 91.54054662 100.1055054 94.04563282 100.09765625 96.55078125 C100.09579026 98.29241393 100.09436721 100.03404714 100.09336853 101.77568054 C100.08955762 106.35085509 100.07973953 110.9259977 100.06866455 115.50115967 C100.05841975 120.17329476 100.05386434 124.84543503 100.04882812 129.51757812 C100.03811595 138.67840168 100.02053072 147.83919318 100 157 C90.43 157 80.86 157 71 157 C70.96261719 152.3284375 70.92523437 147.656875 70.88671875 142.84375 C70.85641869 139.87235996 70.82525767 136.90102835 70.79101562 133.9296875 C70.73682676 129.22040867 70.68571196 124.51124541 70.65356445 119.80175781 C70.62742628 116.00197039 70.58695116 112.20257425 70.53681374 108.4030304 C70.52021568 106.95832715 70.50865764 105.51355634 70.50238609 104.06877136 C70.45556887 94.26890032 70.37404746 85.37404746 63 78 C57.68471524 74.53888434 51.8789731 73.28309408 45.6328125 74.4375 C40.41341159 75.98398916 36.71884413 78.01552414 33 82 C29.18720145 89.50126052 29.52342186 97.21576036 29.48828125 105.4375 C29.4714125 106.92823749 29.45325934 108.41896095 29.43388367 109.90966797 C29.38661541 113.80905775 29.35665698 117.70839062 29.33044434 121.60797119 C29.29524816 126.29971775 29.23830214 130.99124585 29.18505096 135.68281555 C29.10680903 142.78851498 29.05599889 149.8939338 29 157 C19.43 157 9.86 157 0 157 C0 105.19 0 53.38 0 0 Z " fill="#01832A" transform="translate(642,3)"/>
<path d="M0 0 C10.00897583 8.26460272 15.81832012 19.64037374 18.55859375 32.21875 C18.64749635 33.68547519 18.68919518 35.15558461 18.69140625 36.625 C18.69269531 37.45128906 18.69398438 38.27757812 18.6953125 39.12890625 C18.69144531 39.98355469 18.68757812 40.83820313 18.68359375 41.71875 C18.68746094 42.57339844 18.69132813 43.42804688 18.6953125 44.30859375 C18.69402344 45.13488281 18.69273437 45.96117187 18.69140625 46.8125 C18.69027832 47.56208984 18.68915039 48.31167969 18.68798828 49.08398438 C18.55859375 51.21875 18.55859375 51.21875 17.55859375 55.21875 C-4.55140625 55.21875 -26.66140625 55.21875 -49.44140625 55.21875 C-57.44140625 34.21875 -57.44140625 34.21875 -57.44140625 33.21875 C-41.93140625 33.21875 -26.42140625 33.21875 -10.44140625 33.21875 C-14.0820424 23.39484806 -14.0820424 23.39484806 -21.44140625 17.21875 C-29.07677823 14.16460121 -37.78803365 13.71254122 -45.44140625 16.96875 C-46.79354206 17.68429632 -48.13010285 18.43086602 -49.44140625 19.21875 C-50.80265625 20.023125 -50.80265625 20.023125 -52.19140625 20.84375 C-59.20054254 28.24228275 -60.75706754 37.18733712 -60.66015625 47.01171875 C-60.15763863 54.37898599 -58.56951816 60.7369752 -53.44140625 66.21875 C-53.44140625 66.87875 -53.44140625 67.53875 -53.44140625 68.21875 C-52.85746094 68.50492187 -52.27351563 68.79109375 -51.671875 69.0859375 C-49.44140625 70.21875 -49.44140625 70.21875 -47.6796875 71.2890625 C-39.52317538 75.75611782 -29.23048327 75.57874674 -20.33203125 73.48828125 C-16.34723839 72.00907784 -13.24683223 70.21758951 -10.06640625 67.40625 C-7.44140625 65.21875 -7.44140625 65.21875 -5.50683594 65.37084961 C-3.00561877 66.39764952 -1.65509418 67.66332876 0.23046875 69.59765625 C0.89433594 70.27119141 1.55820312 70.94472656 2.2421875 71.63867188 C2.92410156 72.34572266 3.60601562 73.05277344 4.30859375 73.78125 C5.35466797 74.84762695 5.35466797 74.84762695 6.421875 75.93554688 C8.14105955 77.69005714 9.85285247 79.45118352 11.55859375 81.21875 C6.28084566 90.77357224 -4.34482228 95.89006271 -14.55859375 98.8359375 C-20.34067559 100.35651686 -25.79462903 100.72044783 -31.75390625 100.65625 C-32.75719971 100.64795166 -33.76049316 100.63965332 -34.79418945 100.63110352 C-50.32373451 100.2794959 -63.44179897 95.22061543 -74.81640625 84.40625 C-86.39349658 72.08703849 -90.07030258 58.87255378 -89.9140625 42.32226562 C-89.43200315 27.09547775 -83.55578129 13.80386908 -72.44140625 3.21875 C-51.33112615 -14.13216515 -22.38147096 -16.32952121 0 0 Z " fill="#01842A" transform="translate(501.44140625,60.78125)"/>
<path d="M0 0 C9.57 0 19.14 0 29 0 C29 15.18 29 30.36 29 46 C37.25 46 45.5 46 54 46 C54 54.91 54 63.82 54 73 C45.75 73 37.5 73 29 73 C29 100.72 29 128.44 29 157 C19.43 157 9.86 157 0 157 C0 129.28 0 101.56 0 73 C-8.25 73 -16.5 73 -25 73 C-25 64.09 -25 55.18 -25 46 C-16.75 46 -8.5 46 0 46 C0 30.82 0 15.64 0 0 Z " fill="#01842A" transform="translate(353,3)"/>
<path d="M0 0 C1.8359375 1.96484375 1.8359375 1.96484375 1.8359375 5.96484375 C0.27539062 7.97949219 0.27539062 7.97949219 -1.8828125 10.07421875 C-2.64980469 10.82832031 -3.41679688 11.58242187 -4.20703125 12.359375 C-5.01785156 13.13667969 -5.82867188 13.91398437 -6.6640625 14.71484375 C-7.47488281 15.50761719 -8.28570313 16.30039063 -9.12109375 17.1171875 C-11.1267591 19.07566073 -13.14115048 21.02421538 -15.1640625 22.96484375 C-17.70420763 21.72250203 -20.09935305 20.4105975 -22.5390625 18.96484375 C-30.25767526 14.60992118 -38.31388199 13.39508577 -46.98828125 15.72265625 C-55.27051352 18.86718091 -59.26836614 22.48536417 -63.1484375 30.4296875 C-66.06802395 37.71742445 -65.62472689 45.8525184 -63.484375 53.34375 C-60.7747 59.47049303 -55.9228622 64.0854439 -49.9609375 67.06640625 C-40.91228881 70.45173985 -33.04997917 69.2970625 -24.1640625 65.96484375 C-21.1940625 63.98484375 -18.2240625 62.00484375 -15.1640625 59.96484375 C-9.2240625 65.90484375 -3.2840625 71.84484375 2.8359375 77.96484375 C-2.00421403 87.64514681 -11.88978647 92.27835244 -21.77734375 95.578125 C-27.37428471 97.20762727 -32.67349345 97.46358217 -38.4765625 97.40234375 C-39.4862207 97.39477051 -40.49587891 97.38719727 -41.53613281 97.37939453 C-56.54173652 97.04899149 -70.01460193 91.67002522 -81.03125 81.28515625 C-92.17110043 69.16597831 -96.59590326 55.13388403 -96.44140625 38.89453125 C-95.31097367 22.87741617 -88.91896748 9.96196397 -77.1640625 -1.03515625 C-70.73905408 -5.94784544 -63.84035891 -9.52268423 -56.1640625 -12.03515625 C-55.4834375 -12.26074219 -54.8028125 -12.48632812 -54.1015625 -12.71875 C-34.66389843 -18.05674487 -15.4277581 -11.98618129 0 0 Z " fill="#01842A" transform="translate(626.1640625,64.03515625)"/>
<path d="M0 0 C0.66 0.33 1.32 0.66 2 1 C-2.62 5.62 -7.24 10.24 -12 15 C-12 10.09687565 -8.29800369 7.38658643 -5 4 C-3.37458956 2.61667196 -1.72614587 1.25537882 0 0 Z " fill="#109139" transform="translate(434,60)"/>
</svg>
